<?xml version="1.0" encoding="utf-8"?>
<!-- Generator: Adobe Illustrator 16.0.0, SVG Export Plug-In . SVG Version: 6.00 Build 0)  -->
<!DOCTYPE svg PUBLIC "-//W3C//DTD SVG 1.1//EN" "http://www.w3.org/Graphics/SVG/1.1/DTD/svg11.dtd">
<svg version="1.1" id="Layer_1" xmlns="http://www.w3.org/2000/svg" xmlns:xlink="http://www.w3.org/1999/xlink" x="0px" y="0px"
	 width="100px" height="100px" viewBox="0 0 100 100" enable-background="new 0 0 100 100" xml:space="preserve">
<path fill="#006EBE" d="M49.999,1.129C23.01,1.129,1.127,23.009,1.127,50c0,26.992,21.883,48.871,48.872,48.871
	c26.991,0,48.874-21.879,48.874-48.871C98.873,23.009,76.99,1.129,49.999,1.129z M39,44.576l-11.769,5.526L39,55.792v5.821l-17-8.94
	v-4.96l17-8.957V44.576z M44.297,66h-3.385l12.2-32h3.382L44.297,66z M78,52.684l-17,8.95v-5.821l11.808-5.647L61,44.562v-5.763
	l17,8.935V52.684z"/>
<g>
</g>
<g>
</g>
<g>
</g>
<g>
</g>
<g>
</g>
<g>
</g>
<g>
</g>
<g>
</g>
<g>
</g>
<g>
</g>
<g>
</g>
<g>
</g>
<g>
</g>
<g>
</g>
<g>
</g>
</svg>
