<?xml version="1.0" encoding="utf-8"?>
<!-- Generator: Adobe Illustrator 19.0.0, SVG Export Plug-In . SVG Version: 6.00 Build 0)  -->
<svg version="1.1" id="Lager_1" xmlns="http://www.w3.org/2000/svg" xmlns:xlink="http://www.w3.org/1999/xlink" x="0px" y="0px"
	 width="100px" height="100px" viewBox="-249 108 100 100" style="enable-background:new -249 108 100 100;" xml:space="preserve">
<style type="text/css">
	.st0{fill:#36447F;}
	.st1{fill:#C9D5F7;}
</style>
<g>
	<g>
		<g>
			<circle class="st0" cx="-199" cy="158" r="50"/>
		</g>
	</g>
	<g id="Layer_2_1_">
		<g>
			<g>
				<path class="st1" d="M-221.3,150.7c2.3,0,3.8,0.4,4.6,1.3c0.8,0.8,0.9,2.3,0.5,4.3c-0.4,2.1-1.2,3.7-2.4,4.6
					c-1.2,0.9-3,1.4-5.4,1.4h-3.7l2.2-11.6C-225.5,150.7-221.3,150.7-221.3,150.7z M-236,174h6l1.4-7.4h5.2c2.3,0,4.1-0.2,5.6-0.7
					s2.8-1.3,4-2.4c1-0.9,1.8-2,2.5-3.1c0.6-1.1,1.1-2.4,1.3-3.7c0.6-3.3,0.2-5.8-1.4-7.7c-1.6-1.8-4.1-2.7-7.6-2.7h-11.6L-236,174z
					"/>
				<path class="st1" d="M-203.9,139h6l-1.4,7.4h5.3c3.3,0,5.7,0.6,6.9,1.8c1.3,1.2,1.7,3.1,1.1,5.7l-2.5,12.9h-6.1l2.4-12.2
					c0.3-1.4,0.2-2.3-0.3-2.8s-1.5-0.8-3-0.8h-4.8l-3.1,15.8h-6L-203.9,139z"/>
				<path class="st1" d="M-172.6,150.7c2.3,0,3.8,0.4,4.6,1.3c0.8,0.8,0.9,2.3,0.5,4.3c-0.4,2.1-1.2,3.7-2.4,4.6
					c-1.2,0.9-3,1.4-5.4,1.4h-3.7l2.2-11.6C-176.8,150.7-172.6,150.7-172.6,150.7z M-187.3,174h6l1.4-7.4h5.2c2.3,0,4.1-0.2,5.6-0.7
					s2.8-1.3,4-2.4c1-0.9,1.8-2,2.5-3.1c0.6-1.1,1.1-2.4,1.3-3.7c0.6-3.3,0.2-5.8-1.4-7.7c-1.6-1.8-4.1-2.7-7.6-2.7h-11.6
					L-187.3,174z"/>
			</g>
		</g>
	</g>
</g>
</svg>
